<svg xmlns="http://www.w3.org/2000/svg" version="1.1" xmlns:xlink="http://www.w3.org/1999/xlink" width="1000" height="1000"><metadata><rdf:RDF xmlns:rdf="http://www.w3.org/1999/02/22-rdf-syntax-ns#" xmlns:dc="http://purl.org/dc/elements/1.1/"><rdf:Description><dc:creator>RealFaviconGenerator</dc:creator><dc:source>https://realfavicongenerator.net</dc:source></rdf:Description></rdf:RDF></metadata><g clip-path="url(#SvgjsClipPath1009)"><rect width="1000" height="1000" fill="#ffffff"></rect><g transform="matrix(21.875,0,0,21.875,150,150)"><svg xmlns="http://www.w3.org/2000/svg" height="32" width="32" viewBox="0 0 640 640"><path fill="#304ffe" d="M352 512L128 512L128 288L176 288L176 224L128 224C92.7 224 64 252.7 64 288L64 512C64 547.3 92.7 576 128 576L352 576C387.3 576 416 547.3 416 512L416 464L352 464L352 512zM288 416L512 416C547.3 416 576 387.3 576 352L576 128C576 92.7 547.3 64 512 64L288 64C252.7 64 224 92.7 224 128L224 352C224 387.3 252.7 416 288 416z"></path></svg></g></g><defs><clipPath id="SvgjsClipPath1009"><rect width="1000" height="1000" x="0" y="0" rx="350" ry="350"></rect></clipPath></defs></svg>